<svg xmlns="http://www.w3.org/2000/svg" width="680" height="700" viewBox="0 0 680 700" font-family="Helvetica,Arial,sans-serif"><defs><marker id="ah" viewBox="0 0 10 10" refX="8" refY="5" markerWidth="6" markerHeight="6" orient="auto-start-reverse"><path d="M2 1 L8 5 L2 9" fill="none" stroke="context-stroke" stroke-width="1.5" stroke-linecap="round" stroke-linejoin="round"/></marker></defs><rect x="16" y="16" width="648" height="668" rx="14" fill="#fafafa" stroke="#cfcfcf" stroke-width="0.8"/><text x="30" y="32" font-size="13" fill="#6b6b6b">phase 0</text><rect x="58" y="38" width="564" height="98" rx="10" fill="none" stroke="#b9b9b9" stroke-width="0.7" stroke-dasharray="4 4"/><text x="68" y="51" font-size="11" fill="#9a9a9a">level 0</text><rect x="58" y="150" width="564" height="116" rx="10" fill="none" stroke="#b9b9b9" stroke-width="0.7" stroke-dasharray="4 4"/><text x="68" y="163" font-size="11" fill="#9a9a9a">level 1</text><rect x="58" y="280" width="564" height="134" rx="10" fill="none" stroke="#b9b9b9" stroke-width="0.7" stroke-dasharray="4 4"/><text x="68" y="293" font-size="11" fill="#9a9a9a">level 2</text><rect x="58" y="428" width="564" height="98" rx="10" fill="none" stroke="#b9b9b9" stroke-width="0.7" stroke-dasharray="4 4"/><text x="68" y="441" font-size="11" fill="#9a9a9a">level 3</text><rect x="58" y="540" width="564" height="134" rx="10" fill="none" stroke="#b9b9b9" stroke-width="0.7" stroke-dasharray="4 4"/><text x="68" y="553" font-size="11" fill="#9a9a9a">level 4</text><path d="M118 110 C118 139 118 145 118 174" fill="none" stroke="#b0b0b0" stroke-width="1" marker-end="url(#ah)"/><path d="M118 110 C118 139 266 145 266 174" fill="none" stroke="#b0b0b0" stroke-width="1" marker-end="url(#ah)"/><path d="M118 110 C118 139 414 145 414 174" fill="none" stroke="#b0b0b0" stroke-width="1" marker-end="url(#ah)"/><path d="M414 128 C637 181 637 251 340 304" fill="none" stroke="#b0b0b0" stroke-width="1" marker-end="url(#ah)"/><path d="M562 110 C562 139 562 145 562 174" fill="none" stroke="#b0b0b0" stroke-width="1" marker-end="url(#ah)"/><path d="M562 110 C637 246 637 428 340 564" fill="none" stroke="#b0b0b0" stroke-width="1" marker-end="url(#ah)"/><path d="M118 258 C118 279 340 283 340 304" fill="none" stroke="#b0b0b0" stroke-width="1" marker-end="url(#ah)"/><path d="M266 258 C266 279 340 283 340 304" fill="none" stroke="#b0b0b0" stroke-width="1" marker-end="url(#ah)"/><path d="M414 258 C414 279 340 283 340 304" fill="none" stroke="#b0b0b0" stroke-width="1" marker-end="url(#ah)"/><path d="M340 406 C340 427 340 431 340 452" fill="none" stroke="#b0b0b0" stroke-width="1" marker-end="url(#ah)"/><path d="M340 518 C340 539 340 543 340 564" fill="none" stroke="#b0b0b0" stroke-width="1" marker-end="url(#ah)"/><rect x="58" y="62" width="120" height="48" rx="6" fill="#eef3fb"/><path d="M64 62 H172 A6 6 0 0 1 178 68 V86 H58 V68 A6 6 0 0 1 64 62 Z" fill="#c9ddf6"/><line x1="58" y1="86" x2="178" y2="86" stroke="#b9c2cf" stroke-width="0.5"/><rect x="58" y="62" width="120" height="48" rx="6" fill="none" stroke="#b9c2cf" stroke-width="0.6"/><text x="118" y="78" text-anchor="middle" font-size="13" fill="#2b3440"><tspan font-weight="500">clock</tspan></text><text x="70" y="99" font-size="11" fill="#3a4452" font-style="italic">Clock</text><text x="105" y="99" font-size="8" fill="#9a9a9a">res</text><text x="166" y="99" text-anchor="end" font-size="11" fill="#c0561f" font-weight="500">W</text><rect x="206" y="62" width="120" height="66" rx="6" fill="#eef3fb"/><path d="M212 62 H320 A6 6 0 0 1 326 68 V86 H206 V68 A6 6 0 0 1 212 62 Z" fill="#c9ddf6"/><line x1="206" y1="86" x2="326" y2="86" stroke="#b9c2cf" stroke-width="0.5"/><rect x="206" y="62" width="120" height="66" rx="6" fill="none" stroke="#b9c2cf" stroke-width="0.6"/><text x="266" y="78" text-anchor="middle" font-size="13" fill="#2b3440"><tspan font-weight="500">emitter</tspan></text><text x="218" y="99" font-size="11" fill="#3a4452" font-style="italic">Rng</text><text x="240" y="99" font-size="8" fill="#9a9a9a">res</text><text x="314" y="99" text-anchor="end" font-size="11" fill="#c0561f" font-weight="500">W</text><text x="218" y="117" font-size="11" fill="#7a6f5a">Commands</text><rect x="354" y="62" width="120" height="66" rx="6" fill="#eef3fb"/><path d="M360 62 H468 A6 6 0 0 1 474 68 V86 H354 V68 A6 6 0 0 1 360 62 Z" fill="#c9ddf6"/><line x1="354" y1="86" x2="474" y2="86" stroke="#b9c2cf" stroke-width="0.5"/><rect x="354" y="62" width="120" height="66" rx="6" fill="none" stroke="#b9c2cf" stroke-width="0.6"/><text x="414" y="78" text-anchor="middle" font-size="13" fill="#2b3440"><tspan font-weight="500">gravity</tspan></text><text x="366" y="99" font-size="11" fill="#3a4452">Velocity</text><text x="462" y="99" text-anchor="end" font-size="11" fill="#c0561f" font-weight="500">W</text><text x="366" y="117" font-size="11" fill="#3a4452" font-style="italic">Gravity</text><text x="413" y="117" font-size="8" fill="#9a9a9a">res</text><text x="462" y="117" text-anchor="end" font-size="11" fill="#1f7a4d" font-weight="500">R</text><rect x="502" y="62" width="120" height="48" rx="6" fill="#eef3fb"/><path d="M508 62 H616 A6 6 0 0 1 622 68 V86 H502 V68 A6 6 0 0 1 508 62 Z" fill="#c9ddf6"/><line x1="502" y1="86" x2="622" y2="86" stroke="#b9c2cf" stroke-width="0.5"/><rect x="502" y="62" width="120" height="48" rx="6" fill="none" stroke="#b9c2cf" stroke-width="0.6"/><text x="562" y="78" text-anchor="middle" font-size="13" fill="#2b3440"><tspan font-weight="500">age</tspan></text><text x="514" y="99" font-size="11" fill="#3a4452">Age</text><text x="610" y="99" text-anchor="end" font-size="11" fill="#c0561f" font-weight="500">W</text><rect x="58" y="174" width="120" height="84" rx="6" fill="#eef3fb"/><path d="M64 174 H172 A6 6 0 0 1 178 180 V198 H58 V180 A6 6 0 0 1 64 174 Z" fill="#c9ddf6"/><line x1="58" y1="198" x2="178" y2="198" stroke="#b9c2cf" stroke-width="0.5"/><rect x="58" y="174" width="120" height="84" rx="6" fill="none" stroke="#b9c2cf" stroke-width="0.6"/><text x="118" y="190" text-anchor="middle" font-size="13" fill="#2b3440"><tspan font-weight="500">swirl</tspan></text><text x="70" y="211" font-size="11" fill="#3a4452">Swirl</text><text x="166" y="211" text-anchor="end" font-size="11" fill="#c0561f" font-weight="500">W</text><text x="70" y="229" font-size="11" fill="#3a4452">Position</text><text x="166" y="229" text-anchor="end" font-size="11" fill="#1f7a4d" font-weight="500">R</text><text x="70" y="247" font-size="11" fill="#3a4452" font-style="italic">Clock</text><text x="105" y="247" font-size="8" fill="#9a9a9a">res</text><text x="166" y="247" text-anchor="end" font-size="11" fill="#1f7a4d" font-weight="500">R</text><rect x="206" y="174" width="120" height="84" rx="6" fill="#eef3fb"/><path d="M212 174 H320 A6 6 0 0 1 326 180 V198 H206 V180 A6 6 0 0 1 212 174 Z" fill="#c9ddf6"/><line x1="206" y1="198" x2="326" y2="198" stroke="#b9c2cf" stroke-width="0.5"/><rect x="206" y="174" width="120" height="84" rx="6" fill="none" stroke="#b9c2cf" stroke-width="0.6"/><text x="266" y="190" text-anchor="middle" font-size="13" fill="#2b3440"><tspan font-weight="500">drift</tspan></text><text x="218" y="211" font-size="11" fill="#3a4452">Drift</text><text x="314" y="211" text-anchor="end" font-size="11" fill="#c0561f" font-weight="500">W</text><text x="218" y="229" font-size="11" fill="#3a4452">Position</text><text x="314" y="229" text-anchor="end" font-size="11" fill="#1f7a4d" font-weight="500">R</text><text x="218" y="247" font-size="11" fill="#3a4452" font-style="italic">Clock</text><text x="253" y="247" font-size="8" fill="#9a9a9a">res</text><text x="314" y="247" text-anchor="end" font-size="11" fill="#1f7a4d" font-weight="500">R</text><rect x="354" y="174" width="120" height="84" rx="6" fill="#eef3fb"/><path d="M360 174 H468 A6 6 0 0 1 474 180 V198 H354 V180 A6 6 0 0 1 360 174 Z" fill="#c9ddf6"/><line x1="354" y1="198" x2="474" y2="198" stroke="#b9c2cf" stroke-width="0.5"/><rect x="354" y="174" width="120" height="84" rx="6" fill="none" stroke="#b9c2cf" stroke-width="0.6"/><text x="414" y="190" text-anchor="middle" font-size="13" fill="#2b3440"><tspan font-weight="500">gust</tspan></text><text x="366" y="211" font-size="11" fill="#3a4452">Gust</text><text x="462" y="211" text-anchor="end" font-size="11" fill="#c0561f" font-weight="500">W</text><text x="366" y="229" font-size="11" fill="#3a4452">Position</text><text x="462" y="229" text-anchor="end" font-size="11" fill="#1f7a4d" font-weight="500">R</text><text x="366" y="247" font-size="11" fill="#3a4452" font-style="italic">Clock</text><text x="401" y="247" font-size="8" fill="#9a9a9a">res</text><text x="462" y="247" text-anchor="end" font-size="11" fill="#1f7a4d" font-weight="500">R</text><rect x="502" y="174" width="120" height="66" rx="6" fill="#eef3fb"/><path d="M508 174 H616 A6 6 0 0 1 622 180 V198 H502 V180 A6 6 0 0 1 508 174 Z" fill="#c9ddf6"/><line x1="502" y1="198" x2="622" y2="198" stroke="#b9c2cf" stroke-width="0.5"/><rect x="502" y="174" width="120" height="66" rx="6" fill="none" stroke="#b9c2cf" stroke-width="0.6"/><text x="562" y="190" text-anchor="middle" font-size="13" fill="#2b3440"><tspan font-weight="500">reaper</tspan></text><text x="514" y="211" font-size="11" fill="#3a4452">Age</text><text x="610" y="211" text-anchor="end" font-size="11" fill="#1f7a4d" font-weight="500">R</text><text x="514" y="229" font-size="11" fill="#7a6f5a">Commands</text><rect x="280" y="304" width="120" height="102" rx="6" fill="#eef3fb"/><path d="M286 304 H394 A6 6 0 0 1 400 310 V328 H280 V310 A6 6 0 0 1 286 304 Z" fill="#c9ddf6"/><line x1="280" y1="328" x2="400" y2="328" stroke="#b9c2cf" stroke-width="0.5"/><rect x="280" y="304" width="120" height="102" rx="6" fill="none" stroke="#b9c2cf" stroke-width="0.6"/><text x="340" y="320" text-anchor="middle" font-size="13" fill="#2b3440"><tspan font-weight="500">accumulate</tspan></text><text x="292" y="341" font-size="11" fill="#3a4452">Velocity</text><text x="388" y="341" text-anchor="end" font-size="11" fill="#c0561f" font-weight="500">W</text><text x="292" y="359" font-size="11" fill="#3a4452">Swirl</text><text x="388" y="359" text-anchor="end" font-size="11" fill="#1f7a4d" font-weight="500">R</text><text x="292" y="377" font-size="11" fill="#3a4452">Drift</text><text x="388" y="377" text-anchor="end" font-size="11" fill="#1f7a4d" font-weight="500">R</text><text x="292" y="395" font-size="11" fill="#3a4452">Gust</text><text x="388" y="395" text-anchor="end" font-size="11" fill="#1f7a4d" font-weight="500">R</text><rect x="280" y="452" width="120" height="66" rx="6" fill="#eef3fb"/><path d="M286 452 H394 A6 6 0 0 1 400 458 V476 H280 V458 A6 6 0 0 1 286 452 Z" fill="#c9ddf6"/><line x1="280" y1="476" x2="400" y2="476" stroke="#b9c2cf" stroke-width="0.5"/><rect x="280" y="452" width="120" height="66" rx="6" fill="none" stroke="#b9c2cf" stroke-width="0.6"/><text x="340" y="468" text-anchor="middle" font-size="13" fill="#2b3440"><tspan font-weight="500">integrate</tspan></text><text x="292" y="489" font-size="11" fill="#3a4452">Position</text><text x="388" y="489" text-anchor="end" font-size="11" fill="#c0561f" font-weight="500">W</text><text x="292" y="507" font-size="11" fill="#3a4452">Velocity</text><text x="388" y="507" text-anchor="end" font-size="11" fill="#1f7a4d" font-weight="500">R</text><rect x="186" y="564" width="307" height="102" rx="6" fill="#eef3fb"/><path d="M192 564 H488 A6 6 0 0 1 494 570 V588 H186 V570 A6 6 0 0 1 192 564 Z" fill="#c9ddf6"/><line x1="186" y1="588" x2="494" y2="588" stroke="#b9c2cf" stroke-width="0.5"/><rect x="186" y="564" width="307" height="102" rx="6" fill="none" stroke="#b9c2cf" stroke-width="0.6"/><text x="340" y="580" text-anchor="middle" font-size="13" fill="#2b3440"><tspan font-weight="500">extract</tspan></text><text x="198" y="601" font-size="11" fill="#3a4452">Position</text><text x="482" y="601" text-anchor="end" font-size="11" fill="#1f7a4d" font-weight="500">R</text><text x="198" y="619" font-size="11" fill="#3a4452">Color</text><text x="482" y="619" text-anchor="end" font-size="11" fill="#1f7a4d" font-weight="500">R</text><text x="198" y="637" font-size="11" fill="#3a4452">Age</text><text x="482" y="637" text-anchor="end" font-size="11" fill="#1f7a4d" font-weight="500">R</text><text x="198" y="655" font-size="11" fill="#3a4452" font-style="italic">TripleBuffer&lt;std::vector&lt;GpuParticle&gt; &gt;</text><text x="443" y="655" font-size="8" fill="#9a9a9a">res</text><text x="482" y="655" text-anchor="end" font-size="11" fill="#c0561f" font-weight="500">W</text></svg>